HIERARCHY
ROOT Hips
{
	OFFSET 0.00000 0.00000 0.00000
	CHANNELS 6 Xposition Yposition Zposition Zrotation Yrotation Xrotation 
	JOINT LHipJoint
	{
		OFFSET 0 0 0
		CHANNELS 3 Zrotation Yrotation Xrotation
		JOINT LeftHip
		{
			OFFSET 1.53139 -1.83434 0.76626
			CHANNELS 3 Zrotation Yrotation Xrotation
			JOINT LeftKnee
			{
				OFFSET 2.56112 -7.03663 0.00000
				CHANNELS 3 Zrotation Yrotation Xrotation
				JOINT LeftAnkle
				{
					OFFSET 2.59983 -7.14299 0.00000
					CHANNELS 3 Zrotation Yrotation Xrotation
					JOINT LeftToe
					{
						OFFSET 0.13742 -0.37757 2.00054
						CHANNELS 3 Zrotation Yrotation Xrotation
						End Site
						{
							OFFSET 0.00000 -0.00000 1.02897
						}
					}
				}
			}
		}
	}
	JOINT RHipJoint
	{
		OFFSET 0 0 0
		CHANNELS 3 Zrotation Yrotation Xrotation
		JOINT RightHip
		{
			OFFSET -1.40122 -1.83435 0.76627
			CHANNELS 3 Zrotation Yrotation Xrotation
			JOINT RightKnee
			{
				OFFSET -2.54052 -6.98003 0.00000
				CHANNELS 3 Zrotation Yrotation Xrotation
				JOINT RightAnkle
				{
					OFFSET -2.63179 -7.23079 0.00000
					CHANNELS 3 Zrotation Yrotation Xrotation
					JOINT RightToe
					{
						OFFSET -0.24131 -0.66299 2.03908
						CHANNELS 3 Zrotation Yrotation Xrotation
						End Site
						{
							OFFSET -0.00000 -0.00000 1.07391
						}
					}
				}
			}
		}
	}
	JOINT lowerback
	{
		OFFSET 0 0 0
		CHANNELS 3 Zrotation Yrotation Xrotation
		JOINT Chest
		{
			OFFSET 0.01174 2.10302 -0.29778
			CHANNELS 3 Zrotation Yrotation Xrotation
			JOINT Chest2
			{
				OFFSET 0.00772 2.13227 -0.01247
				CHANNELS 3 Zrotation Yrotation Xrotation
				JOINT lowerneck
				{
					OFFSET 0 0 0
					CHANNELS 3 Zrotation Yrotation Xrotation
					JOINT Neck
					{
						OFFSET -0.09219 1.60848 0.31481
						CHANNELS 3 Zrotation Yrotation Xrotation
						JOINT Head
						{
							OFFSET 0.13974 1.65456 -0.31134
							CHANNELS 3 Zrotation Yrotation Xrotation
							End Site
							{
								OFFSET 0.04742 1.69515 -0.14578
							}
						}
					}
				}
				JOINT LeftCollar
				{
					OFFSET 0 0 0
					CHANNELS 3 Zrotation Yrotation Xrotation
					JOINT LeftShoulder
					{
						OFFSET 3.24909 1.02882 -0.23993
CHANNELS 3 Zrotation Xrotation Yrotation
						JOINT LeftElbow
						{
OFFSET 0 -5.329550 -0.000000
CHANNELS 3 Zrotation Xrotation Yrotation
							JOINT LeftWrist
							{
OFFSET 0 -3.692320 -0.000000
CHANNELS 3 Zrotation Xrotation Yrotation
								JOINT lhand
								{
									OFFSET 0 0 0
CHANNELS 3 Zrotation Xrotation Yrotation
									JOINT LFingers
									{
OFFSET 0 -0.536600 -0.000000
CHANNELS 3 Zrotation Xrotation Yrotation
										End Site
										{
OFFSET 0 -0.432620 -0.000000
										}
									}
								}
								JOINT LThumb
								{
OFFSET 0 0.000000 0.000000
CHANNELS 3 Zrotation Xrotation Yrotation
									End Site
									{
OFFSET 0 -0.439220 0.439220
									}
								}
							}
						}
					}
				}
				JOINT RightCollar
				{
					OFFSET 0 0 0
					CHANNELS 3 Zrotation Yrotation Xrotation
					JOINT RightShoulder
					{
						OFFSET -3.21387 0.93002 -0.34594
CHANNELS 3 Zrotation Xrotation Yrotation
						JOINT RightElbow
						{
OFFSET 0 -5.234310 0.000000
CHANNELS 3 Zrotation Xrotation Yrotation
							JOINT RightWrist
							{
OFFSET 0 -3.553010 -0.000000
CHANNELS 3 Zrotation Xrotation Yrotation
								JOINT rhand
								{
									OFFSET 0 0 0
CHANNELS 3 Zrotation Xrotation Yrotation
									JOINT RFingers
									{
OFFSET 0 -0.772520 -0.000000
CHANNELS 3 Zrotation Xrotation Yrotation
										End Site
										{
OFFSET 0 -0.622830 -0.000000
										}
									}
								}
								JOINT RThumb
								{
OFFSET 0 0.000000 0.000000
CHANNELS 3 Zrotation Xrotation Yrotation
									End Site
									{
OFFSET 0 -0.632340 0.632340
									}
								}
							}
						}
					}
				}
			}
		}
	}
}
MOTION
Frames: 5
Frame Time: 0.008333333333333333
16.019900 17.846100 -9.800600 0.394600 -10.268400 0.536400 0.000000 0.000000 0.000000 -23.571900 -1.896300 -5.709800 1.701500 8.214400 23.367200 0.535900 -4.711700 -13.028400 0.040300 -1.296100 -3.563800 0.000000 0.000000 0.000000 18.708000 1.685500 -10.747500 -3.245300 -11.082000 32.556900 -0.876300 -4.074600 -19.610300 -0.032200 1.157600 -3.182600 -2.549400 -0.018800 7.811600 0.487400 -0.240900 -0.512700 1.969600 -0.046500 -4.906600 -14.199500 -9.402400 -19.641800 12.280200 -12.292900 23.082200 4.867100 -5.315200 12.642100 0.000000 0.000000 0.000000 1.333300 -0.053200 -26.795800 13.527700 -22.055500 2.648200 21.511000 18.596800 -25.405400 0.000000 0.000000 0.000000 -7.125000 0.000000 0.000000 -9.020500 56.796700 2.622700 0.000000 0.000000 0.000000 -0.200900 0.018000 16.101000 -14.438400 -23.357900 -2.999700 -16.452800 7.932700 -8.606300 0.000000 0.000000 0.000000 7.125000 0.000000 -0.000000 7.520000 21.044600 4.355100
16.028162 17.850754 -9.801114 0.202119 -10.296985 0.711948 0.000000 0.000000 0.000000 -23.365614 -1.899402 -5.957604 1.721542 8.260188 23.507117 0.537284 -4.845978 -13.045648 0.051860 -1.469053 -4.040366 0.000000 0.000000 0.000000 18.912236 1.867509 -10.802451 -3.224761 -11.050280 32.449611 -0.842896 -4.308878 -19.422497 -0.073710 1.710470 -4.707166 -2.416111 0.058289 7.940315 0.576794 -0.124989 -0.569128 1.974672 0.010987 -5.044347 -14.111630 -9.199398 -19.775879 12.331311 -12.049931 23.311686 4.926497 -5.187658 12.718619 0.000000 0.000000 0.000000 1.279874 0.022907 -27.005492 13.363034 -21.816768 2.586597 21.329345 18.593885 -24.759626 0.000000 0.000000 0.000000 -7.125000 0.000000 0.000000 -8.924424 56.098083 2.443503 0.000000 0.000000 0.000000 -0.369585 -0.003585 16.025894 -14.548925 -23.513978 -3.043715 -16.338655 7.834890 -8.333879 0.000000 0.000000 0.000000 7.125000 0.000000 0.000000 7.608197 21.331172 4.357221
16.027695 17.855009 -9.801224 0.366469 -10.035644 0.717486 0.000000 0.000000 0.000000 -23.527472 -1.780469 -5.958709 1.696300 8.202600 23.331048 0.526073 -5.080743 -12.913541 0.118857 -2.220604 -6.115817 0.000000 0.000000 0.000000 18.691571 1.673705 -10.909467 -3.248672 -11.087119 32.574258 -0.831070 -4.385146 -19.352261 -0.130536 2.327853 -6.412664 -2.727848 0.113019 8.095180 0.636504 -0.083637 -0.607515 2.208532 0.043116 -5.174324 -13.917206 -8.936180 -20.042582 12.094367 -11.703947 24.007537 4.886139 -5.032309 12.962018 0.000000 0.000000 0.000000 1.239482 0.125786 -27.775784 13.347499 -21.794316 2.580897 21.651692 18.038739 -24.304403 0.000000 0.000000 0.000000 -7.125000 0.000000 0.000000 -8.390444 55.697998 2.213886 0.000000 0.000000 0.000000 -0.498915 -0.035219 15.510762 -14.432045 -23.348983 -2.997239 -16.351561 8.072292 -8.383705 0.000000 0.000000 0.000000 7.125000 0.000000 0.000000 7.597819 21.279226 4.360170
16.010403 17.865417 -9.816926 0.171701 -9.409211 0.838190 0.000000 0.000000 0.000000 -22.973789 -0.998883 -6.552274 1.714016 8.243044 23.454772 0.479889 -7.049278 -12.549694 0.148958 -2.486845 -6.853159 0.000000 0.000000 0.000000 18.876334 1.347364 -11.188364 -3.266710 -11.114707 32.667832 -0.840112 -4.120195 -19.281888 -0.073004 1.740449 -4.788915 -2.623905 0.092419 8.128367 0.635199 -0.100376 -0.441652 2.150120 0.027661 -5.018402 -13.315802 -8.650494 -20.734715 11.594753 -11.324491 24.743452 4.671188 -4.840100 13.259155 0.000000 0.000000 0.000000 1.481207 -0.056494 -28.048942 13.694179 -22.295892 2.711001 21.314933 18.001436 -24.969482 0.000000 0.000000 0.000000 -7.125000 0.000000 0.000000 -9.032177 56.309704 2.519844 0.000000 0.000000 0.000000 -0.343567 -0.095289 15.710691 -14.486201 -23.425463 -3.018735 -16.771249 7.841805 -8.481662 0.000000 0.000000 0.000000 7.125000 0.000000 0.000000 7.293015 21.157026 4.202796
15.943614 17.826031 -9.844959 0.596689 -8.359641 0.487516 0.000000 0.000000 0.000000 -22.741522 -0.093800 -6.866111 1.757567 8.341763 23.756928 0.336210 -10.576405 -11.878679 0.068635 -1.677803 -4.616303 0.000000 0.000000 0.000000 17.973389 0.693246 -11.604769 -3.520719 -11.493678 33.963555 -1.074126 -1.141695 -20.029137 -0.090346 1.931501 -5.316517 -3.976998 0.225168 8.780997 0.787253 -0.073638 -0.361395 3.072796 0.083677 -5.305775 -13.448196 -8.536512 -20.615001 11.725626 -11.185291 24.915091 4.783839 -4.778801 13.302950 0.000000 0.000000 0.000000 1.406054 -0.264389 -28.129631 13.894748 -22.583976 2.787631 20.595953 18.843380 -23.887659 0.000000 0.000000 0.000000 -7.125000 0.000000 0.000000 -9.316541 55.057683 2.315901 0.000000 0.000000 0.000000 -0.376294 0.510928 15.279758 -14.770941 -23.826001 -3.132865 -16.669858 7.490769 -8.253989 0.000000 0.000000 0.000000 7.125000 0.000000 0.000000 7.370818 21.397331 4.207889
